<?xml version="1.0" encoding="utf-8"?>
<!-- Generator: Adobe Illustrator 21.1.0, SVG Export Plug-In . SVG Version: 6.00 Build 0)  -->
<svg version="1.1" id="Capa_1" xmlns="http://www.w3.org/2000/svg" xmlns:xlink="http://www.w3.org/1999/xlink" x="0px" y="0px"
	 viewBox="0 0 822 935.4" style="enable-background:new 0 0 822 935.4;" xml:space="preserve">
<style type="text/css">
	.st0{fill:#59B9CF;}
	.st1{fill:#2E4C88;}
	.st2{fill:#C4DBE5;}
	.st3{fill:#AEC1DD;}
	.st4{fill:#1C2C63;}
	.st5{fill:#F79519;}
	.st6{fill:#ED831B;}
	.st7{fill:#415E9D;}
	.st8{fill:#F1F4F5;}
	.st9{fill:#DCE7EC;}
	.st10{fill:#DB722B;}
	.st11{fill:#F8E2B8;}
	.st12{fill:#F6C987;}
	.st13{fill:#F63545;}
	.st14{fill:#FFFFFF;}
	.st15{fill:#FAAF10;}
	.st16{fill:#B7082B;}
	.st17{fill:#ED9618;}
</style>
<g>
	<circle class="st0" cx="411" cy="484.2" r="368.2"/>
	<path class="st1" d="M459,688c0-3.3,2.7-6,6-6h6.6c0.6,0,1.2-0.4,1.4-0.9c0.2-0.6,0.1-1.2-0.3-1.6L401.3,608c-4-4-6.1-9.2-6.1-14.9
		c0-5.6,2.2-10.9,6.1-14.9l3-3c4-4,9.2-6.1,14.9-6.1c5.6,0,10.9,2.2,14.9,6.1l18.7,18.7c0.3,0.3,0.7,0.4,1.1,0.4
		c0.2,0,0.4,0,0.6-0.1c0.6-0.2,0.9-0.8,0.9-1.4V440.3c0-11.6,9.4-21,21-21h0.6c6.3,0,12,2.8,15.9,7.3V98c0-8.3-6.8-15-15-15H159.6
		c-8.3,0-15,6.8-15,15v585.2c0,8.3,6.8,15,15,15H459L459,688L459,688L459,688z"/>
	<path class="st2" d="M395.1,593.1c0-5.6,2.2-10.9,6.1-14.9l3-3c4-4,9.2-6.1,14.9-6.1c5.6,0,10.9,2.2,14.9,6.1l18.7,18.7
		c0.3,0.3,0.7,0.4,1.1,0.4c0.2,0,0.4,0,0.6-0.1c0.6-0.2,0.9-0.8,0.9-1.4V440.3c0-10,7-18.4,16.4-20.5V147.9c0-4.4-3.6-7.9-7.9-7.9
		H173.7c-4.4,0-7.9,3.6-7.9,7.9V594c0,4.4,3.6,7.9,7.9,7.9h223.4C395.8,599.2,395.1,596.2,395.1,593.1z"/>
	<path class="st3" d="M195.5,594V147.9c0-4.4,3.6-7.9,7.9-7.9h-29.8c-4.4,0-7.9,3.6-7.9,7.9V594c0,4.4,3.6,7.9,7.9,7.9h29.8
		C199.1,602,195.5,598.4,195.5,594z"/>
	<g>
		<circle class="st4" cx="318.7" cy="645.1" r="27.9"/>
		<path class="st4" d="M379.3,122.6h-86.2c-6.2,0-11.3-5-11.3-11.3s5-11.3,11.3-11.3h86.2c6.2,0,11.3,5,11.3,11.3
			S385.5,122.6,379.3,122.6z"/>
		<circle class="st4" cx="258.1" cy="111.3" r="12.7"/>
	</g>
	<path class="st5" d="M463.8,139.9H173.7c-4.4,0-7.9,3.6-7.9,7.9v35.2h306v-35.2C471.7,143.5,468.1,139.9,463.8,139.9z"/>
	<path class="st6" d="M203.5,139.9h-29.8c-4.4,0-7.9,3.6-7.9,7.9v35.2h29.8v-35.2C195.5,143.5,199.1,139.9,203.5,139.9z"/>
	<path class="st7" d="M448.2,418.4c0,8.3-6.8,15-15,15h-229c-8.3,0-15-6.8-15-15v-73c0-8.3,6.8-15,15-15h229c8.3,0,15,6.8,15,15
		V418.4z"/>
	<path class="st8" d="M395.1,593.1c0-5.6,2.2-10.9,6.1-14.9l3-3c4-4,9.2-6.1,14.9-6.1c5.6,0,10.9,2.2,14.9,6.1l18.7,18.7
		c0.3,0.3,0.7,0.4,1.1,0.4c0.2,0,0.4,0,0.6-0.1c0.6-0.2,0.9-0.8,0.9-1.4V456.6H165.7V594c0,4.4,3.6,7.9,7.9,7.9h223.4
		C395.8,599.2,395.1,596.2,395.1,593.1z"/>
	<path class="st9" d="M195.5,594V456.6h-29.8V594c0,4.4,3.6,7.9,7.9,7.9h29.8C199.1,602,195.5,598.4,195.5,594z"/>
	<g>
		<path class="st0" d="M342.6,499H222.7c-6.2,0-11.3-5-11.3-11.3c0-6.2,5-11.3,11.3-11.3h119.9c6.2,0,11.3,5,11.3,11.3
			C353.8,493.9,348.8,499,342.6,499z"/>
		<path class="st0" d="M342.6,536.3H222.7c-6.2,0-11.3-5-11.3-11.3c0-6.2,5-11.3,11.3-11.3h119.9c6.2,0,11.3,5,11.3,11.3
			C353.8,531.3,348.8,536.3,342.6,536.3z"/>
		<path class="st0" d="M282.9,573.7h-60.2c-6.2,0-11.3-5-11.3-11.3s5-11.3,11.3-11.3h60.2c6.2,0,11.3,5,11.3,11.3
			S289.1,573.7,282.9,573.7z"/>
	</g>
	<path class="st5" d="M400.3,563.2c-2.3,0-4.6-0.7-6.6-2.2c-5-3.7-6.1-10.7-2.5-15.7l14.7-20.2l-14.7-20.2c-3.7-5-2.6-12.1,2.5-15.7
		c5-3.7,12.1-2.6,15.7,2.5l19.6,26.9c2.9,4,2.9,9.3,0,13.3l-19.6,26.9C407.2,561.6,403.8,563.2,400.3,563.2z"/>
	<path class="st6" d="M472.7,743.5v103.7c55.1-9.3,106-30.8,149.8-61.7v-42.1H472.7z"/>
	<path class="st10" d="M472.7,743.5v103.7c10.1-1.7,20-3.8,29.8-6.3v-97.4H472.7z"/>
	<path class="st11" d="M625.2,682V525.8c0-12.4-10.1-22.5-22.5-22.5H602c-9.2,0-17.1,5.6-20.6,13.5c-3.5-7.9-11.4-13.5-20.6-13.5
		h-0.6c-9.2,0-17.1,5.6-20.6,13.5c-3.5-7.9-11.4-13.5-20.6-13.5h-0.6c-7.8,0-14.7,4-18.7,10.1v-73c0-12.4-10.1-22.5-22.5-22.5h-0.6
		c-12.4,0-22.5,10.1-22.5,22.5v152.6l-18.7-18.7c-8.8-8.8-23.1-8.8-31.9,0l-3,3c-8.8,8.8-8.8,23.1,0,31.9l72.9,72.9H625.2z"/>
	<path class="st12" d="M502.9,682L430,609.1c-8.8-8.8-8.8-23.1,0-31.9l3-3c0.3-0.3,0.7-0.6,1-0.9c-8.8-7.8-22.4-7.5-30.8,0.9l-3,3
		c-8.8,8.8-8.8,23.1,0,31.9l72.9,72.9H502.9z"/>
	<path class="st5" d="M637.8,737.5c0,4.1-3.4,7.5-7.5,7.5H465c-4.1,0-7.5-3.4-7.5-7.5V688c0-4.1,3.4-7.5,7.5-7.5h165.3
		c4.1,0,7.5,3.4,7.5,7.5V737.5z"/>
	<path class="st6" d="M487.3,737.5V688c0-4.1,3.4-7.5,7.5-7.5H465c-4.1,0-7.5,3.4-7.5,7.5v49.5c0,4.1,3.4,7.5,7.5,7.5h29.8
		C490.7,745,487.3,741.6,487.3,737.5z"/>
	<circle class="st10" cx="604.8" cy="712.7" r="14"/>
	<path class="st13" d="M745.7,443.7c0,4.1-3.4,7.5-7.5,7.5H522.1c-4.1,0-7.5-3.4-7.5-7.5V287.8c0-4.1,3.4-7.5,7.5-7.5h216.1
		c4.1,0,7.5,3.4,7.5,7.5V443.7z"/>
	<path class="st14" d="M592.4,331.4c0-8.3,5.9-11.6,13-7.5l59.6,34.4c7.2,4.1,7.2,10.9,0,15l-59.6,34.4c-7.2,4.1-13,0.8-13-7.5
		V331.4z"/>
	<path class="st15" d="M727.6,200.5c-18.6,0-33.8-15.2-33.8-33.8c0-3.1,0.4-6.1,1.2-8.9H522.1c-4.1,0-7.5,3.4-7.5,7.5v89.1
		c0,4.1,3.4,7.5,7.5,7.5h216.1c4.1,0,7.5-3.4,7.5-7.5v-59.2C740.5,198.6,734.3,200.5,727.6,200.5z"/>
	<path class="st16" d="M544.4,443.7V287.8c0-4.1,3.4-7.5,7.5-7.5h-29.8c-4.1,0-7.5,3.4-7.5,7.5v155.9c0,4.1,3.4,7.5,7.5,7.5h29.8
		C547.8,451.2,544.4,447.9,544.4,443.7z"/>
	<path class="st17" d="M544.4,254.4v-89.1c0-4.1,3.4-7.5,7.5-7.5h-29.8c-4.1,0-7.5,3.4-7.5,7.5v89.1c0,4.1,3.4,7.5,7.5,7.5h29.8
		C547.8,261.9,544.4,258.6,544.4,254.4z"/>
	<circle class="st16" cx="727.6" cy="166.7" r="35.3"/>
	<path class="st8" d="M728.7,186c-4.2,0-7.5-3.4-7.5-7.5v-16.3c-3.1-0.9-5.4-3.8-5.4-7.2c0-4.2,3.4-7.5,7.5-7.5h5.4
		c4.2,0,7.5,3.4,7.5,7.5v23.5C736.2,182.6,732.8,186,728.7,186z"/>
	<g>
		<path class="st10" d="M658.6,203.6H551c-6.2,0-11.3-5-11.3-11.3c0-6.2,5-11.3,11.3-11.3h107.6c6.2,0,11.3,5,11.3,11.3
			C669.8,198.5,664.8,203.6,658.6,203.6z"/>
		<path class="st10" d="M691.1,238.4H551c-6.2,0-11.3-5-11.3-11.3c0-6.2,5-11.3,11.3-11.3h140.1c6.2,0,11.3,5,11.3,11.3
			C702.4,233.4,697.3,238.4,691.1,238.4z"/>
	</g>
	<circle class="st6" cx="318.7" cy="257.3" r="56.1"/>
	<circle class="st5" cx="318.7" cy="257.3" r="45.1"/>
	<path class="st14" d="M336.4,270.1h-10v-2.4c8.5-3.1,14.6-11.3,14.6-20.9c0-12.3-10-22.3-22.3-22.3c-12.3,0-22.3,10-22.3,22.3
		c0,9.6,6.1,17.8,14.6,20.9v2.4h-10c-4,0-7.3,3.3-7.3,7.3v17.5c7.1,4.8,15.7,7.5,24.9,7.5s17.8-2.8,24.9-7.5v-17.5
		C343.6,273.4,340.4,270.1,336.4,270.1z"/>
	<path class="st5" d="M268.3,403.7c0,4.1-3.4,7.5-7.5,7.5h-43.6c-4.1,0-7.5-3.4-7.5-7.5v-43.6c0-4.1,3.4-7.5,7.5-7.5h43.6
		c4.1,0,7.5,3.4,7.5,7.5V403.7z"/>
	<path class="st6" d="M228.5,403.7v-43.6c0-4.1,3.4-7.5,7.5-7.5h-18.8c-4.1,0-7.5,3.4-7.5,7.5v43.6c0,4.1,3.4,7.5,7.5,7.5H236
		C231.8,411.2,228.5,407.8,228.5,403.7z"/>
	<g>
		<path class="st4" d="M368.4,381.9c0-4.2,1.4-8.1,3.9-11.3h-80.5c-6.2,0-11.3,5-11.3,11.3c0,6.2,5,11.3,11.3,11.3h80.5
			C369.9,390,368.4,386.1,368.4,381.9z"/>
		<path class="st4" d="M420,370.6h-18.4c2.4,3.1,3.9,7,3.9,11.3c0,4.2-1.4,8.1-3.9,11.3H420c6.2,0,11.3-5,11.3-11.3
			C431.3,375.7,426.3,370.6,420,370.6z"/>
	</g>
	<circle class="st5" cx="387" cy="381.9" r="20"/>
</g>
</svg>
