<?xml version="1.0" encoding="utf-8"?>
<!-- Generator: Adobe Illustrator 21.1.0, SVG Export Plug-In . SVG Version: 6.00 Build 0)  -->
<svg version="1.1" id="Capa_1" xmlns="http://www.w3.org/2000/svg" xmlns:xlink="http://www.w3.org/1999/xlink" x="0px" y="0px"
	 viewBox="0 0 822 935.4" style="enable-background:new 0 0 822 935.4;" xml:space="preserve">
<style type="text/css">
	.st0{fill:#F6E152;}
	.st1{fill:#3D4159;}
	.st2{fill:#F1F0EC;}
	.st3{fill:#F24E4F;}
	.st4{fill:#D8D5D0;}
	.st5{fill:#292F4F;}
	.st6{fill:#E9B599;}
	.st7{fill:#F2CAAE;}
	.st8{fill:#FFFFFF;}
	.st9{fill:#65B8D4;}
	.st10{fill:#2C9EC4;}
</style>
<g>
	<path class="st0" d="M779.3,467.7C779.3,671.1,614.4,836,411,836c-61.7,0-119.8-15.2-170.8-41.9c-17.4-9.1-33.9-19.6-49.6-31.3
		c-8.1-6.1-16-12.5-23.6-19.2C90.8,676.1,42.7,577.5,42.7,467.7C42.7,264.3,207.6,99.4,411,99.4S779.3,264.3,779.3,467.7z"/>
	<path class="st1" d="M592.5,746.2v42.1c-36.8,20.9-77.5,35.6-120.7,42.7c-9.3,1.5-18.7,2.7-28.1,3.6c-5.9,0.5-11.9,0.9-17.9,1.1
		c-4.9,0.2-9.8,0.3-14.7,0.3c-11,0-21.9-0.5-32.6-1.4c-27.3-2.4-53.7-7.8-78.9-15.8c-24.5-7.8-47.9-18.1-69.9-30.5v-42.1
		c0-63.3,43-116.6,101.4-132.2c2.1-0.6,4.3-1.1,6.5-1.6c5.8-1.3,11.8-2.1,17.8-2.6c3.7-0.3,7.4-0.4,11.2-0.4h89.1
		c10,0,19.7,1.1,29,3.1c0.5,0.1,1.1,0.2,1.6,0.3c1.6,0.4,3.2,0.7,4.7,1.2c0,0,0.1,0,0.1,0c15.4,4.1,29.7,10.9,42.5,19.7
		C569.2,658.4,592.5,699.6,592.5,746.2z"/>
	<path class="st2" d="M491.4,612.4L491,614l-47.4,220.6c-10.7,0.9-21.6,1.4-32.6,1.4c-11,0-21.9-0.5-32.6-1.4L331,614l-0.3-1.6
		H491.4z"/>
	<path class="st3" d="M447.8,658.7L411,717.7l-36.7-58.9"/>
	<path class="st3" d="M444.9,834.5c-11.2,1-22.5,1.6-33.9,1.6c-11.4,0-22.8-0.5-33.9-1.6L411,702.3L444.9,834.5z"/>
	<path class="st4" d="M411,665.4l-61.6,34.2l-18.7-87.2l38.3-22.6"/>
	<path class="st4" d="M411,665.4l61.6,34.2l18.7-87.2l-38.3-22.6"/>
	<path class="st5" d="M533.5,626.2l-39.8,103.9h19.5L471.8,831c-9.3,1.5-18.7,2.7-28.1,3.6c-5.9,0.5-11.9,0.9-17.9,1.1l65.6-230.8
		L533.5,626.2z"/>
	<path class="st5" d="M288,626.2l39.8,103.9h-19.5L349.8,831c9.3,1.5,18.7,2.7,28.1,3.6c5.9,0.5,11.9,0.9,17.9,1.1l-65.2-229.3
		L288,626.2z"/>
	<path class="st6" d="M459.9,556.6v59.9c0,21.9-14.5,40.5-34.4,46.6c-4.6,1.4-9.4,2.2-14.4,2.2c-27,0-48.8-21.9-48.8-48.8v-59.9
		H459.9z"/>
	<path class="st7" d="M459.9,612.8v3.8c0,21.9-14.5,40.5-34.4,46.6c-18-5.5-31.5-21.2-34-40.3c3.3,0.2,6.5,0.3,9.8,0.3
		c9.2,0,18.3-0.7,27.1-2.2C439.3,619.3,449.8,616.5,459.9,612.8z"/>
	<path class="st7" d="M277.1,458.4c0,22.6-16.5,41.4-38.1,44.8c-2.4,0.4-4.8,0.6-7.3,0.6c-25.1,0-45.4-20.3-45.4-45.4
		s20.3-45.4,45.4-45.4c2.5,0,4.9,0.2,7.3,0.6C260.5,417.1,277.1,435.8,277.1,458.4z"/>
	<path class="st6" d="M277.1,458.4c0,22.6-16.5,41.4-38.1,44.8c-3.9-14.3-6-29.3-6-44.8c0-15.5,2.1-30.6,6-44.8
		C260.5,417.1,277.1,435.8,277.1,458.4z"/>
	<path class="st6" d="M247.9,458.4c0,9-7.3,16.2-16.2,16.2s-16.2-7.3-16.2-16.2c0-9,7.3-16.2,16.2-16.2S247.9,449.4,247.9,458.4z"/>
	<path class="st7" d="M545,458.4c0,22.6,16.5,41.4,38.1,44.8c2.4,0.4,4.8,0.6,7.3,0.6c25.1,0,45.4-20.3,45.4-45.4
		S615.5,413,590.4,413c-2.5,0-4.9,0.2-7.3,0.6C561.5,417.1,545,435.8,545,458.4z"/>
	<path class="st6" d="M545,458.4c0,22.6,16.5,41.4,38.1,44.8c3.9-14.3,6-29.3,6-44.8c0-15.5-2.1-30.6-6-44.8
		C561.5,417.1,545,435.8,545,458.4z"/>
	<path class="st6" d="M580,369.9v64.3c0,84.1-61.4,153.8-141.9,166.8c-0.3,0-0.6,0.1-0.8,0.1c-8.6,1.4-17.3,2-26.3,2
		c-93.3,0-169-75.7-169-169v-64.3c0-19.6,3.3-38.5,9.5-56.1C274.7,248.1,337.4,201,411,201h0c8.9,0,17.7,0.7,26.3,2
		C518.2,215.6,580,285.6,580,369.9z"/>
	<path class="st6" d="M606.6,458.4c0,9-7.3,16.2-16.2,16.2c-9,0-16.2-7.3-16.2-16.2c0-9,7.3-16.2,16.2-16.2
		C599.4,442.2,606.6,449.4,606.6,458.4z"/>
	<path class="st7" d="M580,369.9v64.3c0,84.1-61.4,153.8-141.9,166.8c-0.3,0-0.6,0.1-0.8,0.1c-80.8-12.6-142.6-82.6-142.6-166.9
		v-64.3c0-84.4,61.8-154.3,142.7-166.9C518.2,215.6,580,285.6,580,369.9z"/>
	<path class="st1" d="M375,424.4c0,10.6-8.6,19.2-19.2,19.2c-10.6,0-19.2-8.6-19.2-19.2s8.6-19.2,19.2-19.2
		C366.5,405.3,375,413.9,375,424.4z"/>
	<path class="st1" d="M485.3,424.4c0,10.6-8.6,19.2-19.2,19.2c-10.6,0-19.2-8.6-19.2-19.2s8.6-19.2,19.2-19.2
		C476.8,405.3,485.3,413.9,485.3,424.4z"/>
	<path class="st8" d="M371.1,421.1c0,4.5-3.7,8.2-8.2,8.2c-4.5,0-8.2-3.7-8.2-8.2s3.7-8.2,8.2-8.2
		C367.4,412.8,371.1,416.5,371.1,421.1z"/>
	<path class="st8" d="M482.4,421.1c0,4.5-3.7,8.2-8.2,8.2s-8.2-3.7-8.2-8.2s3.7-8.2,8.2-8.2S482.4,416.5,482.4,421.1z"/>
	<path class="st6" d="M430.2,465.2h-38.3c-4.6,0-8.3-3.7-8.3-8.3c0-4.6,3.7-8.3,8.3-8.3h38.3c4.6,0,8.3,3.7,8.3,8.3
		C438.5,461.5,434.8,465.2,430.2,465.2z"/>
	<path class="st6" d="M411,517.5c-14.2,0-28.3-3.5-41.2-10.6c-3.6-2-5-6.6-3-10.2c2-3.6,6.6-5,10.2-3c21.3,11.7,46.6,11.7,67.9,0
		c3.6-2,8.2-0.7,10.2,3c2,3.6,0.7,8.2-3,10.2C439.3,514,425.2,517.5,411,517.5z"/>
	<path class="st5" d="M580,311.5v65.9h-31.4v-51.6l-227-42.2l-48-8.9v102.7h-31.4v-65.9c0-75.1,60.9-136,136-136H444
		c1.8,0,3.6,0,5.4,0.1C522,178.4,580,238.2,580,311.5z"/>
	<path class="st1" d="M580,311.5v65.9h-31.4v-51.6l-227-42.2c12.5-60.1,64.6-105.6,127.8-108C522,178.4,580,238.2,580,311.5z"/>
	<path class="st9" d="M371.6,651.4L356.4,671l-41.3,11l-24.4,6.5l-19-17.5c-0.5-0.5-1.1-1-1.6-1.5c-53.6-50.1-79-89.4-102.3-159
		c-0.2-0.7-0.5-1.4-0.7-2.1l-8.1-24.6l16-19.5l27.1-33l24.1-5.6l3.7,9.5l10.5,26.8l15.3,38.8L236,519l-13.4,12.2
		c6.1,19.7,36,66.1,51.4,79.9l16.7-7.1l24.7-10.6l29,30l20,20.7l0,0L371.6,651.4z"/>
	<path class="st2" d="M315.4,593.4L290.7,604l65.8,67l15.1-19.7L315.4,593.4z"/>
	<path class="st2" d="M255.8,500.9L235.9,519l-33.8-87.6l24.1-5.6L255.8,500.9z"/>
	<path class="st10" d="M315.1,682l-24.4,6.5l-19-17.5c-0.5-0.5-1.1-1-1.6-1.5c-53.6-50.1-79-89.4-102.3-159
		c-0.2-0.7-0.5-1.4-0.7-2.1l-8.1-24.6l16-19.5C175,464.4,180.1,597.5,315.1,682C315.1,682,315.1,682,315.1,682z"/>
	<path class="st6" d="M269.7,594.5l-22.9,22.9c-6.1,6.1-14.1,9.1-22.1,9.1c-5.1,0-10.2-1.2-14.7-3.7c-2.6-1.4-5.1-3.2-7.3-5.4
		c-12.2-12.2-12.2-31.9,0-44.1l22.9-22.9c12.2-12.2,31.9-12.2,44.1,0c2.2,2.2,4,4.7,5.4,7.3C281.5,569.5,279.7,584.5,269.7,594.5z"
		/>
	<path class="st7" d="M269.7,594.5l-22.9,22.9c-6.1,6.1-14.1,9.1-22.1,9.1c-5.1,0-10.2-1.2-14.7-3.7c-6.3-11.8-4.5-26.8,5.4-36.8
		l22.9-22.9c10-10,25-11.8,36.8-5.4C281.5,569.5,279.7,584.5,269.7,594.5z"/>
	<path class="st5" d="M240.2,794.1c-17.4-9.1-33.9-19.6-49.6-31.3c-8.1-6.1-16-12.5-23.6-19.2c-1.3-46,6.3-92.2,22.8-136
		c6.6,2.5,13.2,5,19.8,7.5c14.3,5.4,28.5,10.8,42.8,16.2C232.7,683.5,228.6,740.1,240.2,794.1z"/>
	<path class="st1" d="M240.2,794.1c-17.4-9.1-33.9-19.6-49.6-31.3c-4.1-49.7,2.2-100.1,19-147.8c14.3,5.4,28.5,10.8,42.8,16.2
		C232.7,683.5,228.6,740.1,240.2,794.1z"/>
	<path class="st2" d="M466.9,123.9H741v206.1H466.9V123.9z"/>
	<path class="st2" d="M606.1,317L576.7,387l128.8-73.6L606.1,317z"/>
	<g>
		<path class="st1" d="M572,226.9c0,10.7-8.6,19.3-19.3,19.3c-10.7,0-19.3-8.6-19.3-19.3c0-10.7,8.6-19.3,19.3-19.3
			C563.3,207.6,572,216.2,572,226.9z"/>
		<path class="st1" d="M623.2,226.9c0,10.7-8.6,19.3-19.3,19.3c-10.7,0-19.3-8.6-19.3-19.3c0-10.7,8.6-19.3,19.3-19.3
			C614.6,207.6,623.2,216.2,623.2,226.9z"/>
		<path class="st1" d="M674.5,226.9c0,10.7-8.6,19.3-19.3,19.3c-10.7,0-19.3-8.6-19.3-19.3c0-10.7,8.6-19.3,19.3-19.3
			C665.9,207.6,674.5,216.2,674.5,226.9z"/>
	</g>
</g>
</svg>
