<?xml version="1.0" encoding="utf-8"?>
<!-- Generator: Adobe Illustrator 21.1.0, SVG Export Plug-In . SVG Version: 6.00 Build 0)  -->
<svg version="1.1" id="Capa_1" xmlns="http://www.w3.org/2000/svg" xmlns:xlink="http://www.w3.org/1999/xlink" x="0px" y="0px"
	 viewBox="0 0 822 935.4" style="enable-background:new 0 0 822 935.4;" xml:space="preserve">
<style type="text/css">
	.st0{fill:#5A5A5A;}
	.st1{fill:#F9D86E;}
	.st2{fill:#F8B50E;}
	.st3{fill:#838383;}
	.st4{fill:#ACACAC;}
	.st5{fill:#9C9C9C;}
	.st6{fill:#65C5DC;}
	.st7{fill:#1CAACB;}
	.st8{fill:#2090C0;}
	.st9{fill:#1D71B1;}
	.st10{fill:#E7E7E7;}
	.st11{fill:#F45670;}
	.st12{fill:#7FCDD1;}
	.st13{fill:#F8435F;}
	.st14{fill:#1CA2AD;}
</style>
<g>
	<path class="st0" d="M308.1,699.7h204.9v84.8H308.1V699.7z"/>
	<path class="st1" d="M739.3,711.6H82c-20.8,0-37.6-16.8-37.6-37.6v-535c0-20.8,16.8-37.6,37.6-37.6h657.3
		c20.8,0,37.6,16.8,37.6,37.6v535C776.9,694.8,760,711.6,739.3,711.6z"/>
	<path class="st2" d="M776.9,139.1v535c0,20.8-16.8,37.6-37.6,37.6h-45.9c20.8,0,37.6-16.8,37.6-37.6v-535
		c0-20.8-16.8-37.6-37.6-37.6h45.9C760,101.5,776.9,118.3,776.9,139.1z"/>
	<path class="st3" d="M776.9,621H44.3v53c0,20.8,16.8,37.6,37.6,37.6h657.3c20.8,0,37.6-16.8,37.6-37.6V621z"/>
	<path class="st0" d="M776.9,621v53c0,20.8-16.8,37.6-37.6,37.6h-45.9c20.8,0,37.6-16.8,37.6-37.6v-53H776.9z"/>
	<path class="st4" d="M777.7,229.7H45.2v-90.7c0-20.8,16.8-37.6,37.6-37.6h657.3c20.8,0,37.6,16.8,37.6,37.6V229.7z"/>
	<path class="st5" d="M777.7,139v90.7h-46.8V139c0-20.8-16.8-37.6-37.6-37.6h46.8C760.9,101.5,777.7,118.3,777.7,139z"/>
	<path class="st3" d="M579.5,834H241.7c-4.1,0-7.4-3.3-7.4-7.4v-23.9c0-16.2,13.1-29.3,29.3-29.3h293.8c16.2,0,29.3,13.1,29.3,29.3
		v23.9C586.8,830.7,583.5,834,579.5,834z"/>
	<path class="st0" d="M586.8,802.7v23.9c0,4.1-3.3,7.4-7.4,7.4h-26v-31.3c0-16.2-13.1-29.3-29.3-29.3h33.4
		C573.7,773.4,586.8,786.5,586.8,802.7z"/>
	<g>
		<path class="st3" d="M128.1,368.6c-2.7,0-5.5-1-7.6-3.1l-34.7-34.7c-4.2-4.2-4.2-11,0-15.2l34.7-34.7c4.2-4.2,11-4.2,15.2,0
			c4.2,4.2,4.2,11,0,15.2l-27.1,27.1l27.1,27.1c4.2,4.2,4.2,11,0,15.2C133.6,367.5,130.9,368.6,128.1,368.6z"/>
		<path class="st3" d="M211,368.6c-2.7,0-5.5-1-7.6-3.1c-4.2-4.2-4.2-11,0-15.2l27.1-27.1l-27.1-27.1c-4.2-4.2-4.2-11,0-15.2
			c4.2-4.2,11-4.2,15.2,0l34.7,34.7c4.2,4.2,4.2,11,0,15.2l-34.7,34.7C216.5,367.5,213.7,368.6,211,368.6z"/>
		<path class="st3" d="M157.1,368.6c-1.3,0-2.6-0.2-3.9-0.7c-5.5-2.2-8.2-8.4-6.1-13.9l27.2-69.3c2.2-5.5,8.4-8.2,13.9-6.1
			c5.5,2.2,8.2,8.4,6.1,13.9l-27.2,69.3C165.4,366,161.4,368.6,157.1,368.6z"/>
		<path class="st3" d="M174.2,433.4H99.7c-5.9,0-10.7-4.8-10.7-10.7c0-5.9,4.8-10.7,10.7-10.7h74.5c5.9,0,10.7,4.8,10.7,10.7
			C184.9,428.6,180.1,433.4,174.2,433.4z"/>
		<path class="st3" d="M345.7,433.4h-131c-5.9,0-10.7-4.8-10.7-10.7c0-5.9,4.8-10.7,10.7-10.7h131c5.9,0,10.7,4.8,10.7,10.7
			C356.5,428.6,351.7,433.4,345.7,433.4z"/>
		<path class="st3" d="M131.4,480.1H99.7c-5.9,0-10.7-4.8-10.7-10.7c0-5.9,4.8-10.7,10.7-10.7h31.7c5.9,0,10.7,4.8,10.7,10.7
			C142.2,475.3,137.4,480.1,131.4,480.1z"/>
		<path class="st3" d="M324.6,480.1h-19.3c-5.9,0-10.7-4.8-10.7-10.7c0-5.9,4.8-10.7,10.7-10.7h19.3c5.9,0,10.7,4.8,10.7,10.7
			C335.4,475.3,330.5,480.1,324.6,480.1z"/>
		<path class="st3" d="M265.1,480.1h-94.9c-5.9,0-10.7-4.8-10.7-10.7c0-5.9,4.8-10.7,10.7-10.7h94.9c5.9,0,10.7,4.8,10.7,10.7
			C275.9,475.3,271.1,480.1,265.1,480.1z"/>
		<path class="st3" d="M395.9,480.1h-36.2c-5.9,0-10.7-4.8-10.7-10.7c0-5.9,4.8-10.7,10.7-10.7h36.2c5.9,0,10.7,4.8,10.7,10.7
			C406.6,475.3,401.8,480.1,395.9,480.1z"/>
		<path class="st3" d="M326.6,331.7h-38.2c-5.9,0-10.7-4.8-10.7-10.7c0-5.9,4.8-10.7,10.7-10.7h38.2c5.9,0,10.7,4.8,10.7,10.7
			C337.3,326.9,332.5,331.7,326.6,331.7z"/>
		<path class="st3" d="M602.2,331.7H369.3c-5.9,0-10.7-4.8-10.7-10.7c0-5.9,4.8-10.7,10.7-10.7h232.9c5.9,0,10.7,4.8,10.7,10.7
			C613,326.9,608.2,331.7,602.2,331.7z"/>
		<path class="st3" d="M566.9,380.4h-94.3c-5.9,0-10.7-4.8-10.7-10.7c0-5.9,4.8-10.7,10.7-10.7h94.3c5.9,0,10.7,4.8,10.7,10.7
			C577.6,375.6,572.8,380.4,566.9,380.4z"/>
		<path class="st3" d="M437.1,380.4h-32.4c-5.9,0-10.7-4.8-10.7-10.7c0-5.9,4.8-10.7,10.7-10.7h32.4c5.9,0,10.7,4.8,10.7,10.7
			C447.9,375.6,443.1,380.4,437.1,380.4z"/>
		<path class="st3" d="M367.9,380.4h-79.5c-5.9,0-10.7-4.8-10.7-10.7c0-5.9,4.8-10.7,10.7-10.7h79.5c5.9,0,10.7,4.8,10.7,10.7
			C378.6,375.6,373.8,380.4,367.9,380.4z"/>
		<path class="st3" d="M265.3,526.3h-74.5c-5.9,0-10.7-4.8-10.7-10.7c0-5.9,4.8-10.7,10.7-10.7h74.5c5.9,0,10.7,4.8,10.7,10.7
			C276,521.5,271.2,526.3,265.3,526.3z"/>
		<path class="st3" d="M156.9,526.3H99.7c-5.9,0-10.7-4.8-10.7-10.7c0-5.9,4.8-10.7,10.7-10.7h57.2c5.9,0,10.7,4.8,10.7,10.7
			C167.7,521.5,162.9,526.3,156.9,526.3z"/>
		<path class="st3" d="M400.3,526.3H303c-5.9,0-10.7-4.8-10.7-10.7c0-5.9,4.8-10.7,10.7-10.7h97.3c5.9,0,10.7,4.8,10.7,10.7
			C411,521.5,406.2,526.3,400.3,526.3z"/>
	</g>
	<path class="st6" d="M469.3,478.7h239.4v81.1H469.3V478.7z"/>
	<path class="st6" d="M469.3,604h239.4v75.2H469.3V604z"/>
	<path class="st7" d="M680.4,478.7h28.3v81.1h-28.3V478.7z"/>
	<path class="st7" d="M680.4,604h28.3v75.2h-28.3V604z"/>
	<path class="st8" d="M728.5,496.3H449.4c-5.9,0-10.7-4.8-10.7-10.7v-53.7c0-5.9,4.8-10.7,10.7-10.7h279.1c5.9,0,10.7,4.8,10.7,10.7
		v53.7C739.2,491.5,734.4,496.3,728.5,496.3z"/>
	<path class="st8" d="M728.5,616.8H449.4c-5.9,0-10.7-4.8-10.7-10.7v-53.7c0-5.9,4.8-10.7,10.7-10.7h279.1c5.9,0,10.7,4.8,10.7,10.7
		v53.7C739.2,612,734.4,616.8,728.5,616.8z"/>
	<path class="st8" d="M728.5,737.3H449.4c-5.9,0-10.7-4.8-10.7-10.7v-53.7c0-5.9,4.8-10.7,10.7-10.7h279.1c5.9,0,10.7,4.8,10.7,10.7
		v53.7C739.2,732.5,734.4,737.3,728.5,737.3z"/>
	<path class="st9" d="M739.2,431.9v53.7c0,5.9-4.8,10.7-10.7,10.7h-24.8c5.9,0,10.7-4.8,10.7-10.7v-53.7c0-5.9-4.8-10.7-10.7-10.7
		h24.8C734.4,421.2,739.2,426,739.2,431.9z"/>
	<path class="st9" d="M739.2,552.4v53.7c0,5.9-4.8,10.7-10.7,10.7h-24.8c5.9,0,10.7-4.8,10.7-10.7v-53.7c0-5.9-4.8-10.7-10.7-10.7
		h24.8C734.4,541.7,739.2,546.5,739.2,552.4z"/>
	<path class="st9" d="M739.2,672.9v53.7c0,5.9-4.8,10.7-10.7,10.7h-24.8c5.9,0,10.7-4.8,10.7-10.7v-53.7c0-5.9-4.8-10.7-10.7-10.7
		h24.8C734.4,662.2,739.2,667,739.2,672.9z"/>
	<path class="st10" d="M531.9,469.5h-53.2c-5.9,0-10.7-4.8-10.7-10.7c0-5.9,4.8-10.7,10.7-10.7h53.2c5.9,0,10.7,4.8,10.7,10.7
		C542.6,464.7,537.8,469.5,531.9,469.5z"/>
	<path class="st10" d="M699.3,469.5h-75.1c-5.9,0-10.7-4.8-10.7-10.7c0-5.9,4.8-10.7,10.7-10.7h75.1c5.9,0,10.7,4.8,10.7,10.7
		C710,464.7,705.2,469.5,699.3,469.5z"/>
	<path class="st10" d="M586.6,469.5h-17.2c-5.9,0-10.7-4.8-10.7-10.7c0-5.9,4.8-10.7,10.7-10.7h17.2c5.9,0,10.7,4.8,10.7,10.7
		C597.4,464.7,592.6,469.5,586.6,469.5z"/>
	<path class="st10" d="M531.9,590h-53.2c-5.9,0-10.7-4.8-10.7-10.7c0-5.9,4.8-10.7,10.7-10.7h53.2c5.9,0,10.7,4.8,10.7,10.7
		C542.6,585.2,537.8,590,531.9,590z"/>
	<path class="st10" d="M699.3,590h-75.1c-5.9,0-10.7-4.8-10.7-10.7c0-5.9,4.8-10.7,10.7-10.7h75.1c5.9,0,10.7,4.8,10.7,10.7
		C710,585.2,705.2,590,699.3,590z"/>
	<path class="st10" d="M586.6,590h-17.2c-5.9,0-10.7-4.8-10.7-10.7c0-5.9,4.8-10.7,10.7-10.7h17.2c5.9,0,10.7,4.8,10.7,10.7
		C597.4,585.2,592.6,590,586.6,590z"/>
	<path class="st10" d="M531.9,710.5h-53.2c-5.9,0-10.7-4.8-10.7-10.7s4.8-10.7,10.7-10.7h53.2c5.9,0,10.7,4.8,10.7,10.7
		S537.8,710.5,531.9,710.5z"/>
	<path class="st10" d="M699.3,710.5h-75.1c-5.9,0-10.7-4.8-10.7-10.7s4.8-10.7,10.7-10.7h75.1c5.9,0,10.7,4.8,10.7,10.7
		S705.2,710.5,699.3,710.5z"/>
	<path class="st10" d="M586.6,710.5h-17.2c-5.9,0-10.7-4.8-10.7-10.7s4.8-10.7,10.7-10.7h17.2c5.9,0,10.7,4.8,10.7,10.7
		S592.6,710.5,586.6,710.5z"/>
	<path class="st11" d="M136.2,165.3c0,11.8-9.6,21.4-21.4,21.4c-11.8,0-21.4-9.6-21.4-21.4c0-11.8,9.6-21.4,21.4-21.4
		C126.6,143.9,136.2,153.5,136.2,165.3z"/>
	<path class="st1" d="M218.8,165.3c0,11.8-9.6,21.4-21.4,21.4c-11.8,0-21.4-9.6-21.4-21.4c0-11.8,9.6-21.4,21.4-21.4
		C209.3,143.9,218.8,153.5,218.8,165.3z"/>
	<path class="st12" d="M301.4,165.3c0,11.8-9.6,21.4-21.4,21.4c-11.8,0-21.4-9.6-21.4-21.4c0-11.8,9.6-21.4,21.4-21.4
		C291.9,143.9,301.4,153.5,301.4,165.3z"/>
	<path class="st13" d="M136.2,165.3c0,11.8-9.6,21.4-21.4,21.4c-5.7,0-10.9-2.2-14.8-5.9c11.6-0.3,20.9-9.7,20.9-21.4
		c0-6.1-2.6-11.6-6.6-15.5c0.2,0,0.3,0,0.5,0C126.6,143.9,136.2,153.5,136.2,165.3z"/>
	<path class="st2" d="M218.8,165.3c0,11.8-9.6,21.4-21.4,21.4c-5.7,0-10.9-2.2-14.8-5.9c11.6-0.3,20.9-9.7,20.9-21.4
		c0-6.1-2.6-11.6-6.6-15.5c0.2,0,0.3,0,0.5,0C209.3,143.9,218.8,153.5,218.8,165.3z"/>
	<path class="st14" d="M301.4,165.3c0,11.8-9.6,21.4-21.4,21.4c-5.7,0-10.9-2.2-14.8-5.9c11.6-0.3,20.9-9.7,20.9-21.4
		c0-6.1-2.6-11.6-6.6-15.5c0.2,0,0.3,0,0.5,0C291.9,143.9,301.4,153.5,301.4,165.3z"/>
</g>
</svg>
